<svg width="500" height="600" viewBox="0 0 500 600" fill="none" xmlns="http://www.w3.org/2000/svg">
<rect width="1" height="569" fill="url(#paint0_linear_3501_445)"/>
<rect x="15" width="1" height="501.755" fill="url(#paint1_linear_3501_445)"/>
<rect x="30" width="1" height="435.802" fill="url(#paint2_linear_3501_445)"/>
<rect x="45" width="1" height="350.452" fill="url(#paint3_linear_3501_445)"/>
<rect x="60" width="1" height="267.689" fill="url(#paint4_linear_3501_445)"/>
<rect x="75" width="1" height="204" fill="url(#paint5_linear_3501_445)"/>
<rect x="90" width="1" height="161" fill="url(#paint6_linear_3501_445)"/>
<rect x="105" width="1" height="161" fill="url(#paint7_linear_3501_445)"/>
<rect x="120" width="1" height="161" fill="url(#paint8_linear_3501_445)"/>
<rect x="135" width="1" height="161" fill="url(#paint9_linear_3501_445)"/>
<rect x="150" width="1" height="161" fill="url(#paint10_linear_3501_445)"/>
<rect x="500" y="600" width="1" height="569" transform="rotate(-180 500 600)" fill="url(#paint11_linear_3501_445)"/>
<rect x="485" y="600" width="1" height="501.755" transform="rotate(-180 485 600)" fill="url(#paint12_linear_3501_445)"/>
<rect x="470" y="600" width="1" height="435.802" transform="rotate(-180 470 600)" fill="url(#paint13_linear_3501_445)"/>
<rect x="455" y="600" width="1" height="350.452" transform="rotate(-180 455 600)" fill="url(#paint14_linear_3501_445)"/>
<rect x="440" y="600" width="1" height="267.689" transform="rotate(-180 440 600)" fill="url(#paint15_linear_3501_445)"/>
<rect x="425" y="600" width="1" height="204" transform="rotate(-180 425 600)" fill="url(#paint16_linear_3501_445)"/>
<rect x="410" y="600" width="1" height="161" transform="rotate(-180 410 600)" fill="url(#paint17_linear_3501_445)"/>
<rect x="395" y="600" width="1" height="161" transform="rotate(-180 395 600)" fill="url(#paint18_linear_3501_445)"/>
<rect x="380" y="600" width="1" height="161" transform="rotate(-180 380 600)" fill="url(#paint19_linear_3501_445)"/>
<rect x="365" y="600" width="1" height="161" transform="rotate(-180 365 600)" fill="url(#paint20_linear_3501_445)"/>
<rect x="350" y="600" width="1" height="161" transform="rotate(-180 350 600)" fill="url(#paint21_linear_3501_445)"/>
<defs>
<linearGradient id="paint0_linear_3501_445" x1="0.5" y1="0" x2="0.5" y2="569" gradientUnits="userSpaceOnUse">
<stop stop-color="white" stop-opacity="0.1"/>
<stop offset="1" stop-color="white" stop-opacity="0"/>
</linearGradient>
<linearGradient id="paint1_linear_3501_445" x1="15.5" y1="0" x2="15.5" y2="501.755" gradientUnits="userSpaceOnUse">
<stop stop-color="white" stop-opacity="0.1"/>
<stop offset="1" stop-color="white" stop-opacity="0"/>
</linearGradient>
<linearGradient id="paint2_linear_3501_445" x1="30.5" y1="0" x2="30.5" y2="435.802" gradientUnits="userSpaceOnUse">
<stop stop-color="white" stop-opacity="0.1"/>
<stop offset="1" stop-color="white" stop-opacity="0"/>
</linearGradient>
<linearGradient id="paint3_linear_3501_445" x1="45.5" y1="0" x2="45.5" y2="350.452" gradientUnits="userSpaceOnUse">
<stop stop-color="white" stop-opacity="0.1"/>
<stop offset="1" stop-color="white" stop-opacity="0"/>
</linearGradient>
<linearGradient id="paint4_linear_3501_445" x1="60.5" y1="0" x2="60.5" y2="267.689" gradientUnits="userSpaceOnUse">
<stop stop-color="white" stop-opacity="0.1"/>
<stop offset="1" stop-color="white" stop-opacity="0"/>
</linearGradient>
<linearGradient id="paint5_linear_3501_445" x1="75.5" y1="0" x2="75.5" y2="204" gradientUnits="userSpaceOnUse">
<stop stop-color="white" stop-opacity="0.1"/>
<stop offset="1" stop-color="white" stop-opacity="0"/>
</linearGradient>
<linearGradient id="paint6_linear_3501_445" x1="90.5" y1="0" x2="90.5" y2="161" gradientUnits="userSpaceOnUse">
<stop stop-color="white" stop-opacity="0.1"/>
<stop offset="1" stop-color="white" stop-opacity="0"/>
</linearGradient>
<linearGradient id="paint7_linear_3501_445" x1="105.5" y1="0" x2="105.5" y2="161" gradientUnits="userSpaceOnUse">
<stop stop-color="white" stop-opacity="0.1"/>
<stop offset="1" stop-color="white" stop-opacity="0"/>
</linearGradient>
<linearGradient id="paint8_linear_3501_445" x1="120.5" y1="0" x2="120.5" y2="161" gradientUnits="userSpaceOnUse">
<stop stop-color="white" stop-opacity="0.1"/>
<stop offset="1" stop-color="white" stop-opacity="0"/>
</linearGradient>
<linearGradient id="paint9_linear_3501_445" x1="135.5" y1="0" x2="135.5" y2="161" gradientUnits="userSpaceOnUse">
<stop stop-color="white" stop-opacity="0.1"/>
<stop offset="1" stop-color="white" stop-opacity="0"/>
</linearGradient>
<linearGradient id="paint10_linear_3501_445" x1="150.5" y1="0" x2="150.5" y2="161" gradientUnits="userSpaceOnUse">
<stop stop-color="white" stop-opacity="0.1"/>
<stop offset="1" stop-color="white" stop-opacity="0"/>
</linearGradient>
<linearGradient id="paint11_linear_3501_445" x1="500.5" y1="600" x2="500.5" y2="1169" gradientUnits="userSpaceOnUse">
<stop stop-color="white" stop-opacity="0.1"/>
<stop offset="1" stop-color="white" stop-opacity="0"/>
</linearGradient>
<linearGradient id="paint12_linear_3501_445" x1="485.5" y1="600" x2="485.5" y2="1101.75" gradientUnits="userSpaceOnUse">
<stop stop-color="white" stop-opacity="0.1"/>
<stop offset="1" stop-color="white" stop-opacity="0"/>
</linearGradient>
<linearGradient id="paint13_linear_3501_445" x1="470.5" y1="600" x2="470.5" y2="1035.8" gradientUnits="userSpaceOnUse">
<stop stop-color="white" stop-opacity="0.1"/>
<stop offset="1" stop-color="white" stop-opacity="0"/>
</linearGradient>
<linearGradient id="paint14_linear_3501_445" x1="455.5" y1="600" x2="455.5" y2="950.452" gradientUnits="userSpaceOnUse">
<stop stop-color="white" stop-opacity="0.1"/>
<stop offset="1" stop-color="white" stop-opacity="0"/>
</linearGradient>
<linearGradient id="paint15_linear_3501_445" x1="440.5" y1="600" x2="440.5" y2="867.689" gradientUnits="userSpaceOnUse">
<stop stop-color="white" stop-opacity="0.1"/>
<stop offset="1" stop-color="white" stop-opacity="0"/>
</linearGradient>
<linearGradient id="paint16_linear_3501_445" x1="425.5" y1="600" x2="425.5" y2="804" gradientUnits="userSpaceOnUse">
<stop stop-color="white" stop-opacity="0.1"/>
<stop offset="1" stop-color="white" stop-opacity="0"/>
</linearGradient>
<linearGradient id="paint17_linear_3501_445" x1="410.5" y1="600" x2="410.5" y2="761" gradientUnits="userSpaceOnUse">
<stop stop-color="white" stop-opacity="0.1"/>
<stop offset="1" stop-color="white" stop-opacity="0"/>
</linearGradient>
<linearGradient id="paint18_linear_3501_445" x1="395.5" y1="600" x2="395.5" y2="761" gradientUnits="userSpaceOnUse">
<stop stop-color="white" stop-opacity="0.1"/>
<stop offset="1" stop-color="white" stop-opacity="0"/>
</linearGradient>
<linearGradient id="paint19_linear_3501_445" x1="380.5" y1="600" x2="380.5" y2="761" gradientUnits="userSpaceOnUse">
<stop stop-color="white" stop-opacity="0.1"/>
<stop offset="1" stop-color="white" stop-opacity="0"/>
</linearGradient>
<linearGradient id="paint20_linear_3501_445" x1="365.5" y1="600" x2="365.5" y2="761" gradientUnits="userSpaceOnUse">
<stop stop-color="white" stop-opacity="0.1"/>
<stop offset="1" stop-color="white" stop-opacity="0"/>
</linearGradient>
<linearGradient id="paint21_linear_3501_445" x1="350.5" y1="600" x2="350.5" y2="761" gradientUnits="userSpaceOnUse">
<stop stop-color="white" stop-opacity="0.1"/>
<stop offset="1" stop-color="white" stop-opacity="0"/>
</linearGradient>
</defs>
</svg>
